<svg xmlns="http://www.w3.org/2000/svg" height="24" viewBox="0 -960 960 960" width="24"><path d="M559.909-501.539q41.63 0 70.86-29.14Q660-559.819 660-601.448q0-41.629-29.14-70.86-29.141-29.231-70.769-29.231-41.63 0-70.86 29.141Q460-643.258 460-601.629q0 41.629 29.14 70.86 29.141 29.23 70.769 29.23ZM343.077-322.308q42.692-46.077 98.769-71.115Q497.923-418.462 560-418.462t118.154 25.039q56.077 25.038 98.769 71.115 10 0 16.539-7.307Q800-336.923 800-346.923v-428.462q0-10.769-6.923-17.692T775.385-800h-430.77q-10.769 0-17.692 6.923T320-775.385v428.462q0 10 6.538 17.308 6.539 7.307 16.539 7.307ZM344.615-280q-26.654 0-45.634-18.981Q280-317.961 280-344.615v-430.77q0-26.654 18.981-45.634Q317.961-840 344.615-840h430.77q26.654 0 45.634 18.981Q840-802.039 840-775.385v430.77q0 26.654-18.981 45.634Q802.039-280 775.385-280h-430.77Zm-160 160q-26.654 0-45.634-18.981Q120-157.961 120-184.615V-680h40v495.385q0 10.769 6.923 17.692T184.615-160H680v40H184.615ZM560-541.539q-24.692 0-42.346-17.654Q500-576.846 500-601.539q0-24.692 17.654-42.346 17.654-17.654 42.346-17.654 24.692 0 42.346 17.654Q620-626.231 620-601.539q0 24.693-17.654 42.346-17.654 17.654-42.346 17.654ZM398.769-320h322.462q-33.616-29.231-74.923-43.846Q605-378.461 560-378.461q-45 0-86.308 14.615-41.307 14.615-74.923 43.846ZM560-561.154Z"/></svg>